mtllib lego_port_od_larg2_rouge.mtl
o lego_port_od_larg2_rouge_1
v 9.5 12 3.9
v -1.5 12 3.9
v 6.109 12 3.7
v -1.5 12 2.5
v 6.109 12 2.6
v 9.5 12 2.5
v 8.291 12 2.6
v 8.291 12 3.7
v -1.5 13 2.5
v 9.5 13 2.5
v 6.109 13 3.7
v 8.291 13 3.7
v 6.269 13.258 3.7
v 8.131 13.258 3.7
v 6.489 13.467 3.7
v 7.911 13.467 3.7
v 6.755 13.614 3.7
v 7.645 13.614 3.7
v 7.048 13.69 3.7
v 7.352 13.69 3.7
v 8.131 11.742 3.7
v 6.269 11.742 3.7
v 7.911 11.533 3.7
v 6.489 11.533 3.7
v 7.645 11.386 3.7
v 6.755 11.386 3.7
v 7.352 11.31 3.7
v 7.048 11.31 3.7
v 8.291 13 2.6
v 6.109 13 2.6
v 8.131 13.258 2.6
v 6.269 13.258 2.6
v 7.911 13.467 2.6
v 6.489 13.467 2.6
v 7.645 13.614 2.6
v 6.755 13.614 2.6
v 7.352 13.69 2.6
v 7.048 13.69 2.6
v 8.131 11.742 2.6
v 7.911 11.533 2.6
v 7.645 11.386 2.6
v 7.352 11.31 2.6
v 7.048 11.31 2.6
v 6.755 11.386 2.6
v 6.489 11.533 2.6
v 6.269 11.742 2.6
v -1.5 13 3.9
v 9.5 13 3.9
v 10.9 3.6 4
v 10.9 3.6 2.8
v 10.9 4.6 4
v 10.9 4.6 2.8
v -2.9 3.6 2.8
v -2.9 3.6 4
v -2.9 4.6 4
v -2.9 4.6 2.8
v -4 2.6 2.8
v 12 2.6 2.8
v 10.9 5.6 2.8
v -2.9 5.6 2.8
v -4 28.3 2.8
v -2.9 27 2.8
v 10.9 27 2.8
v 12 28.3 2.8
v -4 28.3 4
v -4 28.8 4
v -4 28.8 -4
v -4 0 -4
v -4 0 4
v -4 2.6 4
v 12 28.3 4
v -2.9 27 4
v 10.9 27 4
v -2.9 5.6 4
v 10.9 5.6 4
v 12 2.6 4
v 12 0 4
v 12 0 -4
v 12 28.8 -4
v 12 28.8 4
v 9.5 26 4
v 9.5 6.6 4
v -1.5 6.6 4
v -1.5 26 4
v 9.5 26 2.4
v -1.5 26 2.4
v -1.5 6.6 2.4
v 9.5 6.6 2.4
v 11 27.8 -4
v 11 27.8 2.4
v -3 27.8 -4
v -3 27.8 2.4
v -3 1.6 -4
v -3 1.6 2.4
v 0 1.6 -2.4
v 0.621 1.6 -2.318
v 7.379 1.6 -2.318
v 11 1.6 -4
v 8 1.6 -2.4
v 8.621 1.6 -2.318
v -2.078 1.6 1.2
v -2.318 1.6 0.621
v -2.4 1.6 0
v -2.318 1.6 -0.621
v -2.078 1.6 -1.2
v 0 1.6 2.4
v -0.621 1.6 2.318
v -1.2 1.6 2.078
v -1.697 1.6 1.697
v -1.697 1.6 -1.697
v -1.2 1.6 -2.078
v -0.621 1.6 -2.318
v 6.8 1.6 -2.078
v 1.2 1.6 -2.078
v 6.303 1.6 -1.697
v 1.697 1.6 -1.697
v 5.922 1.6 -1.2
v 2.078 1.6 -1.2
v 5.682 1.6 -0.621
v 2.318 1.6 -0.621
v 5.6 1.6 0
v 2.4 1.6 0
v 2.318 1.6 0.621
v 5.682 1.6 0.621
v 2.078 1.6 1.2
v 5.922 1.6 1.2
v 1.697 1.6 1.697
v 6.303 1.6 1.697
v 1.2 1.6 2.078
v 6.8 1.6 2.078
v 0.621 1.6 2.318
v 7.379 1.6 2.318
v 8 1.6 2.4
v 9.2 1.6 -2.078
v 9.697 1.6 -1.697
v 10.078 1.6 -1.2
v 10.318 1.6 -0.621
v 10.4 1.6 0
v 11 1.6 2.4
v 10.318 1.6 0.621
v 10.078 1.6 1.2
v 9.697 1.6 1.697
v 9.2 1.6 2.078
v 8.621 1.6 2.318
v 10.078 0 1.2
v 9.697 0 1.697
v 9.2 0 2.078
v 8.621 0 2.318
v 8 0 2.4
v 7.379 0 2.318
v 10.318 0 0.621
v 10.4 0 0
v 10.318 0 -0.621
v 10.078 0 -1.2
v 9.697 0 -1.697
v 9.2 0 -2.078
v 8.621 0 -2.318
v 8 0 -2.4
v 7.379 0 -2.318
v 6.8 0 -2.078
v 6.303 0 -1.697
v 5.922 0 -1.2
v 5.682 0 -0.621
v 5.6 0 0
v 5.682 0 0.621
v 5.922 0 1.2
v 6.303 0 1.697
v 6.8 0 2.078
v 2.078 0 1.2
v 1.697 0 1.697
v 1.2 0 2.078
v 0.621 0 2.318
v 0 0 2.4
v -0.621 0 2.318
v 2.318 0 0.621
v 2.4 0 0
v 2.318 0 -0.621
v 2.078 0 -1.2
v 1.697 0 -1.697
v 1.2 0 -2.078
v 0.621 0 -2.318
v 0 0 -2.4
v -0.621 0 -2.318
v -1.2 0 -2.078
v -1.697 0 -1.697
v -2.078 0 -1.2
v -2.318 0 -0.621
v -2.4 0 0
v -2.318 0 0.621
v -2.078 0 1.2
v -1.697 0 1.697
v -1.2 0 2.078
v 9.697 28.8 1.697
v 10.078 28.8 1.2
v 10.078 30.4 1.2
v 10.318 28.8 0.621
v 10.318 30.4 0.621
v 10.4 28.8 0
v 10.4 30.4 0
v 10.318 28.8 -0.621
v 10.318 30.4 -0.621
v 10.078 28.8 -1.2
v 10.078 30.4 -1.2
v 9.697 30.4 -1.697
v 9.697 30.4 1.697
v 9.2 30.4 2.078
v 9.2 28.8 2.078
v 8.621 30.4 2.318
v 8.621 28.8 2.318
v 8 30.4 2.4
v 8 28.8 2.4
v 7.379 30.4 2.318
v 7.379 28.8 2.318
v 6.8 28.8 2.078
v 6.8 30.4 2.078
v 6.303 30.4 1.697
v 6.303 28.8 1.697
v 5.922 30.4 1.2
v 5.922 28.8 1.2
v 5.682 30.4 0.621
v 5.682 28.8 0.621
v 5.6 28.8 0
v 5.6 30.4 0
v 5.682 28.8 -0.621
v 5.682 30.4 -0.621
v 5.922 30.4 -1.2
v 5.922 28.8 -1.2
v 6.303 30.4 -1.697
v 6.303 28.8 -1.697
v 6.8 30.4 -2.078
v 6.8 28.8 -2.078
v 7.379 28.8 -2.318
v 7.379 30.4 -2.318
v 8 30.4 -2.4
v 8 28.8 -2.4
v 8.621 30.4 -2.318
v 8.621 28.8 -2.318
v 9.2 30.4 -2.078
v 9.2 28.8 -2.078
v 9.697 28.8 -1.697
v 1.697 28.8 1.697
v 2.078 28.8 1.2
v 2.078 30.4 1.2
v 2.318 28.8 0.621
v 2.318 30.4 0.621
v 2.4 28.8 0
v 2.4 30.4 0
v 2.318 28.8 -0.621
v 2.318 30.4 -0.621
v 2.078 28.8 -1.2
v 2.078 30.4 -1.2
v 1.697 30.4 -1.697
v 1.697 30.4 1.697
v 1.2 30.4 2.078
v 1.2 28.8 2.078
v 0.621 30.4 2.318
v 0.621 28.8 2.318
v 0 30.4 2.4
v 0 28.8 2.4
v -0.621 30.4 2.318
v -0.621 28.8 2.318
v -1.2 28.8 2.078
v -1.2 30.4 2.078
v -1.697 30.4 1.697
v -1.697 28.8 1.697
v -2.078 30.4 1.2
v -2.078 28.8 1.2
v -2.318 30.4 0.621
v -2.318 28.8 0.621
v -2.4 28.8 0
v -2.4 30.4 0
v -2.318 28.8 -0.621
v -2.318 30.4 -0.621
v -2.078 30.4 -1.2
v -2.078 28.8 -1.2
v -1.697 30.4 -1.697
v -1.697 28.8 -1.697
v -1.2 30.4 -2.078
v -1.2 28.8 -2.078
v -0.621 28.8 -2.318
v -0.621 30.4 -2.318
v 0 30.4 -2.4
v 0 28.8 -2.4
v 0.621 30.4 -2.318
v 0.621 28.8 -2.318
v 1.2 30.4 -2.078
v 1.2 28.8 -2.078
v 1.697 28.8 -1.697
vn 0 -1 0
vn 0 0 -1
vn 0 0 1
vn -0.909 0.417 0
vn -0.775 0.631 0
vn -0.592 0.806 0
vn -0.371 0.929 0
vn -0.126 0.992 0
vn 0.126 0.992 0
vn 0.371 0.929 0
vn 0.592 0.806 0
vn 0.775 0.631 0
vn 0.909 0.417 0
vn 0.909 -0.417 0
vn 0.775 -0.631 0
vn 0.592 -0.806 0
vn 0.371 -0.929 0
vn 0.126 -0.992 0
vn -0.126 -0.992 0
vn -0.371 -0.929 0
vn -0.592 -0.806 0
vn -0.775 -0.631 0
vn -0.909 -0.417 0
vn 0 1 0
vn 1 0 0
vn -1 0 0
vn -0.866 0 -0.5
vn -0.707 0 -0.707
vn -0.5 0 -0.866
vn -0.259 0 -0.966
vn 0.259 0 -0.966
vn 0.5 0 -0.866
vn -0.966 0 -0.259
vn -0.966 0 0.259
vn -0.866 0 0.5
vn -0.707 0 0.707
vn -0.5 0 0.866
vn -0.259 0 0.966
vn 0.259 0 0.966
vn 0.5 0 0.866
vn 0.707 0 0.707
vn 0.866 0 0.5
vn 0.966 0 0.259
vn 0.966 0 -0.259
vn 0.866 0 -0.5
vn 0.707 0 -0.707
g lego_port_od_larg2_rouge_1
usemtl lego_port_od_larg2_rouge_color_1
f 1//1 2//1 3//1
f 3//1 2//1 4//1
f 3//1 4//1 5//1
f 5//1 4//1 6//1
f 5//1 6//1 7//1
f 7//1 6//1 8//1
f 3//1 8//1 1//1
f 1//1 8//1 6//1
f 9//2 10//2 4//2
f 4//2 10//2 6//2
f 11//3 12//3 13//3
f 13//3 12//3 14//3
f 13//3 14//3 15//3
f 15//3 14//3 16//3
f 15//3 16//3 17//3
f 17//3 16//3 18//3
f 17//3 18//3 19//3
f 19//3 18//3 20//3
f 8//3 3//3 21//3
f 21//3 3//3 22//3
f 21//3 22//3 23//3
f 23//3 22//3 24//3
f 23//3 24//3 25//3
f 25//3 24//3 26//3
f 25//3 26//3 27//3
f 27//3 26//3 28//3
f 29//2 30//2 31//2
f 31//2 30//2 32//2
f 31//2 32//2 33//2
f 33//2 32//2 34//2
f 33//2 34//2 35//2
f 35//2 34//2 36//2
f 35//2 36//2 37//2
f 37//2 36//2 38//2
f 30//4 11//4 32//5
f 32//5 11//4 13//5
f 32//5 13//5 15//6
f 32//5 15//6 34//6
f 34//6 15//6 17//7
f 34//6 17//7 36//7
f 36//7 17//7 19//8
f 36//7 19//8 38//8
f 38//8 19//8 37//9
f 19//8 20//9 37//9
f 37//9 20//9 18//10
f 37//9 18//10 35//10
f 35//10 18//10 16//11
f 35//10 16//11 33//11
f 33//11 16//11 14//12
f 33//11 14//12 31//12
f 31//12 14//12 29//13
f 14//12 12//13 29//13
f 7//14 8//14 39//15
f 39//15 8//14 21//15
f 39//15 21//15 23//16
f 39//15 23//16 40//16
f 40//16 23//16 25//17
f 40//16 25//17 41//17
f 41//17 25//17 27//18
f 41//17 27//18 42//18
f 42//18 27//18 43//19
f 27//18 28//19 43//19
f 43//19 28//19 26//20
f 43//19 26//20 44//20
f 44//20 26//20 24//21
f 44//20 24//21 45//21
f 45//21 24//21 22//22
f 45//21 22//22 46//22
f 46//22 22//22 5//23
f 22//22 3//23 5//23
f 5//2 7//2 46//2
f 46//2 7//2 39//2
f 46//2 39//2 45//2
f 45//2 39//2 40//2
f 45//2 40//2 44//2
f 44//2 40//2 41//2
f 44//2 41//2 43//2
f 43//2 41//2 42//2
f 2//3 1//3 47//3
f 47//3 1//3 48//3
f 47//24 11//24 9//24
f 9//24 11//24 30//24
f 9//24 30//24 10//24
f 10//24 30//24 29//24
f 10//24 29//24 12//24
f 47//24 48//24 11//24
f 11//24 48//24 12//24
f 48//24 10//24 12//24
f 49//25 50//25 51//25
f 51//25 50//25 52//25
f 50//1 49//1 53//1
f 53//1 49//1 54//1
f 51//3 55//3 49//3
f 49//3 55//3 54//3
f 51//24 52//24 55//24
f 55//24 52//24 56//24
f 53//3 57//3 50//3
f 50//3 57//3 58//3
f 50//3 58//3 52//3
f 52//3 58//3 59//3
f 52//3 59//3 56//3
f 56//3 59//3 60//3
f 56//3 60//3 57//3
f 57//3 60//3 61//3
f 53//3 56//3 57//3
f 60//3 62//3 61//3
f 61//3 62//3 63//3
f 61//3 63//3 64//3
f 64//3 63//3 59//3
f 64//3 59//3 58//3
f 53//26 54//26 56//26
f 56//26 54//26 55//26
f 65//26 66//26 61//26
f 61//26 66//26 67//26
f 61//26 67//26 57//26
f 57//26 67//26 68//26
f 57//26 68//26 69//26
f 69//26 70//26 57//26
f 65//1 61//1 71//1
f 71//1 61//1 64//1
f 62//24 72//24 63//24
f 63//24 72//24 73//24
f 60//26 74//26 62//26
f 62//26 74//26 72//26
f 59//1 75//1 60//1
f 60//1 75//1 74//1
f 63//25 73//25 59//25
f 59//25 73//25 75//25
f 57//24 70//24 58//24
f 58//24 70//24 76//24
f 77//25 78//25 58//25
f 58//25 78//25 79//25
f 58//25 79//25 64//25
f 64//25 79//25 80//25
f 64//25 80//25 71//25
f 58//25 76//25 77//25
f 81//3 82//3 75//3
f 75//3 82//3 83//3
f 75//3 83//3 74//3
f 74//3 83//3 84//3
f 74//3 84//3 72//3
f 72//3 84//3 81//3
f 72//3 81//3 73//3
f 73//3 81//3 75//3
f 76//3 70//3 77//3
f 77//3 70//3 69//3
f 65//3 71//3 66//3
f 66//3 71//3 80//3
f 85//1 81//1 86//1
f 86//1 81//1 84//1
f 4//25 87//25 9//25
f 9//25 87//25 86//25
f 9//25 86//25 84//25
f 4//25 2//25 87//25
f 87//25 2//25 83//25
f 2//25 47//25 83//25
f 83//25 47//25 84//25
f 47//25 9//25 84//25
f 87//24 83//24 88//24
f 88//24 83//24 82//24
f 82//26 81//26 48//26
f 48//26 81//26 85//26
f 48//26 85//26 10//26
f 10//26 85//26 88//26
f 10//26 88//26 6//26
f 6//26 88//26 82//26
f 6//26 82//26 1//26
f 1//26 82//26 48//26
f 89//1 90//1 91//1
f 91//1 90//1 92//1
f 91//25 92//25 93//25
f 93//25 92//25 94//25
f 95//24 96//24 93//24
f 93//24 96//24 97//24
f 93//24 97//24 98//24
f 98//24 97//24 99//24
f 98//24 99//24 100//24
f 101//24 102//24 94//24
f 94//24 102//24 103//24
f 94//24 103//24 93//24
f 93//24 103//24 104//24
f 93//24 104//24 105//24
f 106//24 107//24 94//24
f 94//24 107//24 108//24
f 94//24 108//24 109//24
f 109//24 101//24 94//24
f 105//24 110//24 93//24
f 93//24 110//24 111//24
f 93//24 111//24 112//24
f 112//24 95//24 93//24
f 97//24 96//24 113//24
f 113//24 96//24 114//24
f 113//24 114//24 115//24
f 115//24 114//24 116//24
f 115//24 116//24 117//24
f 117//24 116//24 118//24
f 117//24 118//24 119//24
f 119//24 118//24 120//24
f 119//24 120//24 121//24
f 121//24 120//24 122//24
f 121//24 122//24 123//24
f 121//24 123//24 124//24
f 124//24 123//24 125//24
f 124//24 125//24 126//24
f 126//24 125//24 127//24
f 126//24 127//24 128//24
f 128//24 127//24 129//24
f 128//24 129//24 130//24
f 130//24 129//24 131//24
f 130//24 131//24 132//24
f 132//24 131//24 106//24
f 132//24 106//24 133//24
f 100//24 134//24 98//24
f 98//24 134//24 135//24
f 98//24 135//24 136//24
f 136//24 137//24 98//24
f 98//24 137//24 138//24
f 98//24 138//24 139//24
f 139//24 138//24 140//24
f 139//24 140//24 141//24
f 141//24 142//24 139//24
f 139//24 142//24 143//24
f 139//24 143//24 144//24
f 144//24 133//24 139//24
f 139//2 133//2 88//2
f 88//2 133//2 106//2
f 88//2 106//2 87//2
f 87//2 106//2 94//2
f 87//2 94//2 92//2
f 139//2 88//2 90//2
f 90//2 88//2 85//2
f 90//2 85//2 86//2
f 90//2 86//2 92//2
f 92//2 86//2 87//2
f 98//26 139//26 89//26
f 89//26 139//26 90//26
f 145//27 146//28 142//28
f 142//28 146//28 147//29
f 142//28 147//29 143//29
f 143//29 147//29 148//30
f 143//29 148//30 144//30
f 144//30 148//30 149//2
f 144//30 149//2 133//2
f 133//2 149//2 150//31
f 133//2 150//31 132//31
f 132//31 150//31 130//32
f 142//28 141//27 145//27
f 145//27 141//27 140//33
f 145//27 140//33 151//33
f 151//33 140//33 138//26
f 151//33 138//26 152//26
f 152//26 138//26 137//34
f 152//26 137//34 153//34
f 153//34 137//34 136//35
f 153//34 136//35 154//35
f 154//35 136//35 155//36
f 136//35 135//36 155//36
f 155//36 135//36 134//37
f 155//36 134//37 156//37
f 156//37 134//37 100//38
f 156//37 100//38 157//38
f 157//38 100//38 99//3
f 157//38 99//3 158//3
f 158//3 99//3 97//39
f 158//3 97//39 159//39
f 159//39 97//39 160//40
f 97//39 113//40 160//40
f 160//40 113//40 115//41
f 160//40 115//41 161//41
f 161//41 115//41 117//42
f 161//41 117//42 162//42
f 162//42 117//42 119//43
f 162//42 119//43 163//43
f 163//43 119//43 164//25
f 119//43 121//25 164//25
f 164//25 121//25 165//44
f 121//25 124//44 165//44
f 165//44 124//44 126//45
f 165//44 126//45 166//45
f 166//45 126//45 128//46
f 166//45 128//46 167//46
f 167//46 128//46 130//32
f 167//46 130//32 168//32
f 168//32 130//32 150//31
f 169//27 170//28 127//28
f 127//28 170//28 171//29
f 127//28 171//29 129//29
f 129//29 171//29 172//30
f 129//29 172//30 131//30
f 131//30 172//30 173//2
f 131//30 173//2 106//2
f 106//2 173//2 174//31
f 106//2 174//31 107//31
f 107//31 174//31 108//32
f 127//28 125//27 169//27
f 169//27 125//27 123//33
f 169//27 123//33 175//33
f 175//33 123//33 122//26
f 175//33 122//26 176//26
f 176//26 122//26 120//34
f 176//26 120//34 177//34
f 177//34 120//34 118//35
f 177//34 118//35 178//35
f 178//35 118//35 179//36
f 118//35 116//36 179//36
f 179//36 116//36 114//37
f 179//36 114//37 180//37
f 180//37 114//37 96//38
f 180//37 96//38 181//38
f 181//38 96//38 95//3
f 181//38 95//3 182//3
f 182//3 95//3 112//39
f 182//3 112//39 183//39
f 183//39 112//39 184//40
f 112//39 111//40 184//40
f 184//40 111//40 110//41
f 184//40 110//41 185//41
f 185//41 110//41 105//42
f 185//41 105//42 186//42
f 186//42 105//42 104//43
f 186//42 104//43 187//43
f 187//43 104//43 188//25
f 104//43 103//25 188//25
f 188//25 103//25 189//44
f 103//25 102//44 189//44
f 189//44 102//44 101//45
f 189//44 101//45 190//45
f 190//45 101//45 109//46
f 190//45 109//46 191//46
f 191//46 109//46 108//32
f 191//46 108//32 192//32
f 192//32 108//32 174//31
f 193//41 194//42 195//42
f 195//42 194//42 196//43
f 195//42 196//43 197//43
f 197//43 196//43 198//25
f 197//43 198//25 199//25
f 199//25 198//25 200//44
f 199//25 200//44 201//44
f 201//44 200//44 202//45
f 201//44 202//45 203//45
f 203//45 202//45 204//46
f 195//42 205//41 193//41
f 193//41 205//41 206//40
f 193//41 206//40 207//40
f 207//40 206//40 208//39
f 207//40 208//39 209//39
f 209//39 208//39 210//3
f 209//39 210//3 211//3
f 211//3 210//3 212//38
f 211//3 212//38 213//38
f 213//38 212//38 214//37
f 212//38 215//37 214//37
f 214//37 215//37 216//36
f 214//37 216//36 217//36
f 217//36 216//36 218//35
f 217//36 218//35 219//35
f 219//35 218//35 220//34
f 219//35 220//34 221//34
f 221//34 220//34 222//26
f 220//34 223//26 222//26
f 222//26 223//26 224//33
f 223//26 225//33 224//33
f 224//33 225//33 226//27
f 224//33 226//27 227//27
f 227//27 226//27 228//28
f 227//27 228//28 229//28
f 229//28 228//28 230//29
f 229//28 230//29 231//29
f 231//29 230//29 232//30
f 230//29 233//30 232//30
f 232//30 233//30 234//2
f 232//30 234//2 235//2
f 235//2 234//2 236//31
f 235//2 236//31 237//31
f 237//31 236//31 238//32
f 237//31 238//32 239//32
f 239//32 238//32 204//46
f 239//32 204//46 240//46
f 240//46 204//46 202//45
f 236//24 233//24 238//24
f 238//24 233//24 230//24
f 238//24 230//24 204//24
f 204//24 230//24 228//24
f 204//24 228//24 203//24
f 203//24 228//24 226//24
f 203//24 226//24 201//24
f 201//24 226//24 225//24
f 201//24 225//24 199//24
f 199//24 225//24 223//24
f 199//24 223//24 197//24
f 197//24 223//24 220//24
f 197//24 220//24 195//24
f 195//24 220//24 218//24
f 195//24 218//24 205//24
f 205//24 218//24 216//24
f 205//24 216//24 206//24
f 206//24 216//24 215//24
f 206//24 215//24 208//24
f 208//24 215//24 212//24
f 208//24 212//24 210//24
f 236//24 234//24 233//24
f 241//41 242//42 243//42
f 243//42 242//42 244//43
f 243//42 244//43 245//43
f 245//43 244//43 246//25
f 245//43 246//25 247//25
f 247//25 246//25 248//44
f 247//25 248//44 249//44
f 249//44 248//44 250//45
f 249//44 250//45 251//45
f 251//45 250//45 252//46
f 243//42 253//41 241//41
f 241//41 253//41 254//40
f 241//41 254//40 255//40
f 255//40 254//40 256//39
f 255//40 256//39 257//39
f 257//39 256//39 258//3
f 257//39 258//3 259//3
f 259//3 258//3 260//38
f 259//3 260//38 261//38
f 261//38 260//38 262//37
f 260//38 263//37 262//37
f 262//37 263//37 264//36
f 262//37 264//36 265//36
f 265//36 264//36 266//35
f 265//36 266//35 267//35
f 267//35 266//35 268//34
f 267//35 268//34 269//34
f 269//34 268//34 270//26
f 268//34 271//26 270//26
f 270//26 271//26 272//33
f 271//26 273//33 272//33
f 272//33 273//33 274//27
f 272//33 274//27 275//27
f 275//27 274//27 276//28
f 275//27 276//28 277//28
f 277//28 276//28 278//29
f 277//28 278//29 279//29
f 279//29 278//29 280//30
f 278//29 281//30 280//30
f 280//30 281//30 282//2
f 280//30 282//2 283//2
f 283//2 282//2 284//31
f 283//2 284//31 285//31
f 285//31 284//31 286//32
f 285//31 286//32 287//32
f 287//32 286//32 252//46
f 287//32 252//46 288//46
f 288//46 252//46 250//45
f 284//24 281//24 286//24
f 286//24 281//24 278//24
f 286//24 278//24 252//24
f 252//24 278//24 276//24
f 252//24 276//24 251//24
f 251//24 276//24 274//24
f 251//24 274//24 249//24
f 249//24 274//24 273//24
f 249//24 273//24 247//24
f 247//24 273//24 271//24
f 247//24 271//24 245//24
f 245//24 271//24 268//24
f 245//24 268//24 243//24
f 243//24 268//24 266//24
f 243//24 266//24 253//24
f 253//24 266//24 264//24
f 253//24 264//24 254//24
f 254//24 264//24 263//24
f 254//24 263//24 256//24
f 256//24 263//24 260//24
f 256//24 260//24 258//24
f 284//24 282//24 281//24
f 79//2 78//2 98//2
f 98//2 78//2 68//2
f 98//2 68//2 93//2
f 93//2 68//2 67//2
f 93//2 67//2 91//2
f 91//2 67//2 79//2
f 91//2 79//2 89//2
f 89//2 79//2 98//2
f 77//1 69//1 150//1
f 150//1 69//1 172//1
f 150//1 172//1 168//1
f 168//1 172//1 171//1
f 168//1 171//1 167//1
f 167//1 171//1 170//1
f 167//1 170//1 166//1
f 166//1 170//1 169//1
f 166//1 169//1 165//1
f 165//1 169//1 175//1
f 165//1 175//1 164//1
f 164//1 175//1 176//1
f 164//1 176//1 177//1
f 150//1 149//1 77//1
f 77//1 149//1 148//1
f 77//1 148//1 147//1
f 147//1 146//1 77//1
f 77//1 146//1 145//1
f 77//1 145//1 151//1
f 151//1 152//1 77//1
f 77//1 152//1 78//1
f 152//1 153//1 78//1
f 78//1 153//1 154//1
f 78//1 154//1 155//1
f 155//1 156//1 78//1
f 78//1 156//1 157//1
f 78//1 157//1 158//1
f 158//1 159//1 78//1
f 78//1 159//1 68//1
f 68//1 159//1 181//1
f 181//1 159//1 160//1
f 181//1 160//1 180//1
f 180//1 160//1 161//1
f 180//1 161//1 179//1
f 179//1 161//1 162//1
f 179//1 162//1 178//1
f 178//1 162//1 163//1
f 178//1 163//1 177//1
f 177//1 163//1 164//1
f 189//1 69//1 188//1
f 188//1 69//1 68//1
f 188//1 68//1 187//1
f 187//1 68//1 186//1
f 189//1 190//1 69//1
f 69//1 190//1 191//1
f 69//1 191//1 192//1
f 192//1 174//1 69//1
f 69//1 174//1 173//1
f 69//1 173//1 172//1
f 181//1 182//1 68//1
f 68//1 182//1 183//1
f 68//1 183//1 184//1
f 184//1 185//1 68//1
f 68//1 185//1 186//1
f 79//24 67//24 232//24
f 232//24 67//24 285//24
f 232//24 285//24 231//24
f 231//24 285//24 287//24
f 231//24 287//24 229//24
f 229//24 287//24 288//24
f 229//24 288//24 227//24
f 227//24 288//24 250//24
f 227//24 250//24 224//24
f 224//24 250//24 248//24
f 224//24 248//24 222//24
f 222//24 248//24 246//24
f 222//24 246//24 244//24
f 232//24 235//24 79//24
f 79//24 235//24 237//24
f 79//24 237//24 239//24
f 239//24 240//24 79//24
f 79//24 240//24 202//24
f 79//24 202//24 200//24
f 200//24 198//24 79//24
f 79//24 198//24 80//24
f 198//24 196//24 80//24
f 80//24 196//24 194//24
f 80//24 194//24 193//24
f 193//24 207//24 80//24
f 80//24 207//24 209//24
f 80//24 209//24 211//24
f 211//24 213//24 80//24
f 80//24 213//24 66//24
f 66//24 213//24 257//24
f 257//24 213//24 214//24
f 257//24 214//24 255//24
f 255//24 214//24 217//24
f 255//24 217//24 241//24
f 241//24 217//24 219//24
f 241//24 219//24 242//24
f 242//24 219//24 221//24
f 242//24 221//24 244//24
f 244//24 221//24 222//24
f 272//24 67//24 270//24
f 270//24 67//24 66//24
f 270//24 66//24 269//24
f 269//24 66//24 267//24
f 272//24 275//24 67//24
f 67//24 275//24 277//24
f 67//24 277//24 279//24
f 279//24 280//24 67//24
f 67//24 280//24 283//24
f 67//24 283//24 285//24
f 257//24 259//24 66//24
f 66//24 259//24 261//24
f 66//24 261//24 262//24
f 262//24 265//24 66//24
f 66//24 265//24 267//24
l 5 3
l 3 8
l 8 7
l 7 5
l 4 2
l 6 4
l 1 6
l 2 1
l 9 4
l 9 10
l 6 10
l 12 11
l 12 14
l 14 16
l 16 18
l 18 20
l 20 19
l 19 17
l 17 15
l 15 13
l 13 11
l 3 22
l 22 24
l 24 26
l 26 28
l 28 27
l 27 25
l 25 23
l 23 21
l 21 8
l 30 29
l 30 32
l 32 34
l 34 36
l 36 38
l 38 37
l 37 35
l 35 33
l 33 31
l 31 29
l 11 30
l 29 12
l 7 39
l 39 40
l 40 41
l 41 42
l 42 43
l 43 44
l 44 45
l 45 46
l 46 5
l 2 47
l 48 1
l 48 47
l 47 9
l 10 48
l 50 49
l 50 52
l 51 52
l 49 51
l 54 49
l 54 53
l 53 50
l 51 55
l 55 54
l 56 52
l 56 55
l 56 53
l 60 59
l 62 60
l 63 62
l 59 63
l 64 58
l 61 64
l 57 61
l 57 58
l 61 65
l 66 65
l 66 67
l 68 67
l 69 68
l 70 69
l 70 57
l 71 64
l 65 71
l 72 62
l 73 72
l 73 63
l 74 60
l 72 74
l 75 59
l 74 75
l 75 73
l 76 70
l 58 76
l 77 76
l 77 78
l 79 78
l 80 79
l 71 80
l 82 83
l 83 84
l 84 81
l 81 82
l 69 77
l 80 66
l 85 86
l 81 85
l 84 86
l 86 87
l 83 87
l 87 88
l 82 88
l 88 85
l 89 91
l 90 89
l 90 92
l 92 91
l 91 93
l 92 94
l 94 93
l 93 98
l 94 106
l 106 131
l 131 129
l 129 127
l 127 125
l 125 123
l 123 122
l 122 120
l 120 118
l 118 116
l 116 114
l 114 96
l 96 95
l 95 112
l 112 111
l 111 110
l 110 105
l 105 104
l 104 103
l 103 102
l 102 101
l 101 109
l 109 108
l 108 107
l 107 106
l 106 133
l 133 144
l 144 143
l 143 142
l 142 141
l 141 140
l 140 138
l 138 137
l 137 136
l 136 135
l 135 134
l 134 100
l 100 99
l 99 97
l 97 113
l 113 115
l 115 117
l 117 119
l 119 121
l 121 124
l 124 126
l 126 128
l 128 130
l 130 132
l 132 133
l 133 139
l 139 98
l 139 90
l 98 89
l 164 165
l 165 166
l 166 167
l 167 168
l 168 150
l 150 149
l 149 148
l 148 147
l 147 146
l 146 145
l 145 151
l 151 152
l 152 153
l 153 154
l 154 155
l 155 156
l 156 157
l 157 158
l 158 159
l 159 160
l 160 161
l 161 162
l 162 163
l 163 164
l 188 189
l 189 190
l 190 191
l 191 192
l 192 174
l 174 173
l 173 172
l 172 171
l 171 170
l 170 169
l 169 175
l 175 176
l 176 177
l 177 178
l 178 179
l 179 180
l 180 181
l 181 182
l 182 183
l 183 184
l 184 185
l 185 186
l 186 187
l 187 188
l 199 201
l 201 203
l 203 204
l 204 238
l 238 236
l 236 234
l 234 233
l 233 230
l 230 228
l 228 226
l 226 225
l 225 223
l 223 220
l 220 218
l 218 216
l 216 215
l 215 212
l 212 210
l 210 208
l 208 206
l 206 205
l 205 195
l 195 197
l 197 199
l 222 224
l 224 227
l 227 229
l 229 231
l 231 232
l 232 235
l 235 237
l 237 239
l 239 240
l 240 202
l 202 200
l 200 198
l 198 196
l 196 194
l 194 193
l 193 207
l 207 209
l 209 211
l 211 213
l 213 214
l 214 217
l 217 219
l 219 221
l 221 222
l 247 249
l 249 251
l 251 252
l 252 286
l 286 284
l 284 282
l 282 281
l 281 278
l 278 276
l 276 274
l 274 273
l 273 271
l 271 268
l 268 266
l 266 264
l 264 263
l 263 260
l 260 258
l 258 256
l 256 254
l 254 253
l 253 243
l 243 245
l 245 247
l 270 272
l 272 275
l 275 277
l 277 279
l 279 280
l 280 283
l 283 285
l 285 287
l 287 288
l 288 250
l 250 248
l 248 246
l 246 244
l 244 242
l 242 241
l 241 255
l 255 257
l 257 259
l 259 261
l 261 262
l 262 265
l 265 267
l 267 269
l 269 270
l 78 68
l 67 79
o lego_port_od_larg2_rouge_2
v 11 27.8 2.4
v -3 27.8 2.4
v 11 1.6 2.4
v -3 1.6 2.4
v 11 1.6 1.4
v -3 1.6 1.4
v 11 27.8 1.4
v -3 27.8 1.4
vn 0 0 1
vn 0 0 -1
vn 0 -1 0
vn -1 0 0
vn 0 1 0
vn 1 0 0
g lego_port_od_larg2_rouge_2
usemtl lego_port_od_larg2_rouge_color_2
f 289//47 290//47 291//47
f 291//47 290//47 292//47
f 293//48 294//48 295//48
f 295//48 294//48 296//48
f 292//49 294//49 291//49
f 291//49 294//49 293//49
f 290//50 296//50 292//50
f 292//50 296//50 294//50
f 289//51 295//51 290//51
f 290//51 295//51 296//51
f 291//52 293//52 289//52
f 289//52 293//52 295//52
l 291 289
l 289 290
l 290 292
l 292 291
l 295 293
l 293 294
l 294 296
l 296 295
l 292 294
l 291 293
l 290 296
l 289 295
